<svg xmlns="http://www.w3.org/2000/svg" version="1.1" xmlns:xlink="http://www.w3.org/1999/xlink" width="512" height="512" x="0" y="0" viewBox="0 0 512 512" style="enable-background:new 0 0 512 512" xml:space="preserve" class=""><g><path d="M402.04 88.85c-.508-9.415-11.656-15.512-19.85-10.86-39.51 21-82.85 31.49-126.19 31.49s-86.68-10.49-126.19-31.49c-8.195-4.653-19.341 1.446-19.85 10.86-.17 2.12-4.12 52.76 10.74 113.89 8.8 36.16 22.39 68.5 40.4 96.12 22.73 34.85 52.54 62.16 88.58 81.16a13.525 13.525 0 0 0 12.64 0c36.04-19 65.85-46.31 88.58-81.16 18.01-27.62 31.6-59.96 40.4-96.12 14.86-61.13 10.91-111.77 10.74-113.89zM176.07 191.78c-7.61-3.27-11.12-12.1-7.85-19.71s12.1-11.12 19.71-7.85l34.87 15c7.62 3.27 11.13 12.1 7.86 19.71-3.274 7.679-12.29 11.091-19.71 7.85zm128.9 81.75c-10.25 17.66-28.56 28.2-48.97 28.2s-38.72-10.54-48.97-28.2c-4.16-7.16-1.73-16.34 5.44-20.5 7.16-4.16 16.34-1.73 20.5 5.44 4.82 8.3 13.43 13.26 23.03 13.26s18.21-4.96 23.03-13.26c4.16-7.17 13.34-9.6 20.5-5.44 7.17 4.16 9.6 13.34 5.44 20.5zm30.96-81.75-34.88 15c-7.42 3.241-16.436-.171-19.71-7.85-3.27-7.61.24-16.44 7.86-19.71l34.87-15c7.61-3.27 16.44.24 19.71 7.85s-.24 16.44-7.85 19.71z" fill="#ffffff" opacity="1" data-original="#000000" class=""></path><path d="M447 455.41V497c0 8.28-6.72 15-15 15h-39v-70.05c0-8.28-6.72-15-15-15s-15 6.72-15 15V512H149v-70.05c0-8.28-6.72-15-15-15s-15 6.72-15 15V512H80c-8.28 0-15-6.72-15-15v-41.59c0-55.39 36.97-102.29 87.53-117.35 22.92 28.46 50.8 51.44 83.16 68.5 12.483 6.679 28.137 6.679 40.62 0 32.37-17.06 60.25-40.04 83.16-68.5C410.03 353.12 447 400.02 447 455.41zM360.77 55.23C328.2 71.11 292.16 79.48 256 79.48c-36.18 0-72.25-8.38-104.83-24.28 7.91-11.53 17.74-21.74 29.24-30.26C202.4 8.62 228.54 0 256 0c33.92 0 65.81 13.21 89.8 37.19 5.54 5.55 10.55 11.6 14.97 18.04zM452.7 218.38c0 10.79-4.2 20.92-11.83 28.56-7.63 7.63-17.77 11.83-28.55 11.83H405c6.13-15.51 11.29-31.85 15.45-48.94 2.45-10.08 4.43-19.88 6.02-29.27 15.3 5.75 26.23 20.54 26.23 37.82zM107 258.77c-13.068.87-26.562-2.041-35.87-11.83-7.63-7.64-11.83-17.77-11.83-28.56 0-17.28 10.93-32.07 26.23-37.82 1.59 9.39 3.57 19.19 6.02 29.27 4.16 17.1 9.32 33.43 15.45 48.94z" fill="#ffffff" opacity="1" data-original="#ffffff" class=""></path></g></svg>
